<svg width="32" height="32" viewBox="0 0 32 32" fill="none" xmlns="http://www.w3.org/2000/svg">
<path d="M11.2 0C11.6243 0 12.0313 0.168571 12.3314 0.468629C12.6314 0.768687 12.8 1.17565 12.8 1.6V3.2H19.2V1.6C19.2 1.17565 19.3686 0.768687 19.6686 0.468629C19.9687 0.168571 20.3757 0 20.8 0C21.2243 0 21.6313 0.168571 21.9314 0.468629C22.2314 0.768687 22.4 1.17565 22.4 1.6V3.2H24C25.273 3.2 26.4939 3.70571 27.3941 4.60589C28.2943 5.50606 28.8 6.72696 28.8 8V9.6H30.4C30.8243 9.6 31.2313 9.76857 31.5314 10.0686C31.8314 10.3687 32 10.7757 32 11.2C32 11.6243 31.8314 12.0313 31.5314 12.3314C31.2313 12.6314 30.8243 12.8 30.4 12.8H28.8V19.2H30.4C30.8243 19.2 31.2313 19.3686 31.5314 19.6686C31.8314 19.9687 32 20.3757 32 20.8C32 21.2243 31.8314 21.6313 31.5314 21.9314C31.2313 22.2314 30.8243 22.4 30.4 22.4H28.8V24C28.8 25.273 28.2943 26.4939 27.3941 27.3941C26.4939 28.2943 25.273 28.8 24 28.8H22.4V30.4C22.4 30.8243 22.2314 31.2313 21.9314 31.5314C21.6313 31.8314 21.2243 32 20.8 32C20.3757 32 19.9687 31.8314 19.6686 31.5314C19.3686 31.2313 19.2 30.8243 19.2 30.4V28.8H12.8V30.4C12.8 30.8243 12.6314 31.2313 12.3314 31.5314C12.0313 31.8314 11.6243 32 11.2 32C10.7757 32 10.3687 31.8314 10.0686 31.5314C9.76857 31.2313 9.6 30.8243 9.6 30.4V28.8H8C6.72696 28.8 5.50606 28.2943 4.60589 27.3941C3.70571 26.4939 3.2 25.273 3.2 24V22.4H1.6C1.17565 22.4 0.768687 22.2314 0.468629 21.9314C0.168571 21.6313 0 21.2243 0 20.8C0 20.3757 0.168571 19.9687 0.468629 19.6686C0.768687 19.3686 1.17565 19.2 1.6 19.2H3.2V12.8H1.6C1.17565 12.8 0.768687 12.6314 0.468629 12.3314C0.168571 12.0313 0 11.6243 0 11.2C0 10.7757 0.168571 10.3687 0.468629 10.0686C0.768687 9.76857 1.17565 9.6 1.6 9.6H3.2V8C3.2 6.72696 3.70571 5.50606 4.60589 4.60589C5.50606 3.70571 6.72696 3.2 8 3.2H9.6V1.6C9.6 1.17565 9.76857 0.768687 10.0686 0.468629C10.3687 0.168571 10.7757 0 11.2 0ZM24 25.6C24.4243 25.6 24.8313 25.4314 25.1314 25.1314C25.4314 24.8313 25.6 24.4243 25.6 24V8C25.6 7.57565 25.4314 7.16869 25.1314 6.86863C24.8313 6.56857 24.4243 6.4 24 6.4H8C7.57565 6.4 7.16869 6.56857 6.86863 6.86863C6.56857 7.16869 6.4 7.57565 6.4 8V24C6.4 24.4243 6.56857 24.8313 6.86863 25.1314C7.16869 25.4314 7.57565 25.6 8 25.6H24ZM9.6 11.2C9.6 10.7757 9.76857 10.3687 10.0686 10.0686C10.3687 9.76857 10.7757 9.6 11.2 9.6H20.8C21.2243 9.6 21.6313 9.76857 21.9314 10.0686C22.2314 10.3687 22.4 10.7757 22.4 11.2V20.8C22.4 21.2243 22.2314 21.6313 21.9314 21.9314C21.6313 22.2314 21.2243 22.4 20.8 22.4H11.2C10.7757 22.4 10.3687 22.2314 10.0686 21.9314C9.76857 21.6313 9.6 21.2243 9.6 20.8V11.2ZM12.8 12.8V19.2H19.2V12.8H12.8Z" fill="#00380C"/>
</svg>
